<?xml version="1.0" standalone="no"?>
<!DOCTYPE svg PUBLIC "-//W3C//DTD SVG 20010904//EN"
 "http://www.w3.org/TR/2001/REC-SVG-20010904/DTD/svg10.dtd">
<svg version="1.0" xmlns="http://www.w3.org/2000/svg"
 width="240.000000pt" height="108.000000pt" viewBox="0 0 240.000000 108.000000"
 preserveAspectRatio="xMidYMid meet">

<g transform="translate(0.000000,108.000000) scale(0.100000,-0.100000)"
fill="#000000" stroke="none">
<path d="M2197 1058 c-8 -13 -70 -191 -137 -396 -68 -205 -126 -369 -130 -365
-4 4 -48 131 -98 282 -50 151 -97 278 -104 282 -15 10 -159 12 -182 3 -9 -3
-16 -10 -16 -15 0 -17 282 -804 296 -827 13 -20 22 -22 104 -22 82 0 91 2 104
22 8 13 64 169 126 348 61 179 125 363 141 410 17 47 42 118 55 159 14 40 29
82 34 91 22 40 4 50 -91 50 -81 0 -90 -2 -102 -22z"/>
<path d="M13 859 c-18 -18 -19 -829 -1 -847 19 -19 434 -16 516 3 127 30 190
97 200 210 6 87 -10 135 -64 185 l-42 39 32 35 c64 67 72 178 19 264 -23 37
-43 54 -97 82 l-69 35 -241 3 c-186 3 -244 1 -253 -9z m476 -193 c24 -21 30
-51 18 -87 -10 -32 -44 -49 -97 -49 -29 0 -42 -5 -50 -19 -11 -22 -13 -120 -2
-137 4 -6 31 -14 61 -17 87 -10 123 -48 107 -112 -12 -45 -39 -54 -186 -56
l-135 -1 -3 238 c-1 131 0 245 3 252 4 12 31 14 134 10 108 -3 133 -7 150 -22z"/>
<path d="M952 861 c-9 -5 -12 -30 -10 -87 l3 -79 55 -5 55 -5 3 -252 2 -253
-55 0 c-67 0 -72 -8 -65 -107 l5 -68 204 -3 c142 -2 208 1 217 9 18 15 19 140
2 157 -7 7 -34 12 -60 12 l-48 0 0 254 0 255 53 3 52 3 3 81 c3 78 2 82 -20
88 -34 9 -381 7 -396 -3z"/>
</g>
</svg>
